<svg width="28" height="28" viewBox="0 0 28 28" fill="none" xmlns="http://www.w3.org/2000/svg">
<path d="M3.5 22.0207V5.97905C3.5 5.66794 3.63125 5.42975 3.89375 5.26447C4.15625 5.09919 4.43333 5.07489 4.725 5.19155L23.7417 13.1832C24.0917 13.3388 24.2667 13.611 24.2667 13.9999C24.2667 14.3888 24.0917 14.661 23.7417 14.8166L4.725 22.8082C4.43333 22.9249 4.15625 22.9006 3.89375 22.7353C3.63125 22.57 3.5 22.3318 3.5 22.0207ZM5.25 20.6207L21.1167 13.9999L5.25 7.29155V12.1916L12.3083 13.9999L5.25 15.7499V20.6207ZM5.25 13.9999V7.29155V20.6207V13.9999Z" fill="white"/>
</svg>
